<svg width="144" height="32" viewBox="0 0 144 32" fill="none" xmlns="http://www.w3.org/2000/svg">
<g clip-path="url(#clip0_62037_243)">
<path fill-rule="evenodd" clip-rule="evenodd" d="M38.8995 26.9376L40.2484 20.5969C40.9893 20.6837 41.9546 20.7647 43.2977 20.7647C46.4361 20.7647 48.9977 19.9078 50.7774 18.3892C52.5597 16.8683 53.5457 14.694 53.5457 12.0882C53.5457 10.3208 53.0739 8.83477 52.1857 7.67785C51.2973 6.52094 50.0005 5.70372 48.3689 5.26024C47.4197 5.00162 46.3568 4.86865 45.193 4.86865C43.9602 4.86865 41.5476 5.19944 40.093 5.4451L39.9993 5.4605L35.4199 26.9385H38.8987L38.8995 26.9376ZM43.1472 17.5655C42.6746 17.5655 42.254 17.5582 41.8672 17.5405C41.526 17.5242 41.2112 17.4999 40.9092 17.4643L42.8717 8.26483C43.4981 8.17565 44.3783 8.067 45.2834 8.067C45.8418 8.067 46.3511 8.1124 46.8118 8.19996C47.6984 8.36859 48.4033 8.6937 48.9311 9.14934C49.729 9.83846 50.1383 10.8438 50.1383 12.1182C50.1383 13.7519 49.5519 15.1066 48.3961 16.0559C47.2371 17.0086 45.4893 17.5655 43.1472 17.5655Z" fill="black"/>
<path d="M69.5264 26.9379L74.149 5.25488H70.6687L66.0469 26.9379H69.5273H69.5264Z" fill="black"/>
<path fill-rule="evenodd" clip-rule="evenodd" d="M113.459 13.0849L115.143 5.25484H118.626L115.574 19.4695C115.302 20.7147 115.065 22.1287 115.065 22.962C115.065 23.3035 115.11 23.5644 115.2 23.7355C115.243 23.819 115.296 23.8774 115.356 23.9155C115.415 23.9536 115.49 23.9764 115.588 23.9764C115.715 23.9764 115.872 23.9179 116.057 23.7939C116.24 23.6714 116.438 23.4931 116.643 23.275C117.044 22.8486 117.46 22.2827 117.829 21.7193C117.827 21.6486 117.826 21.5774 117.826 21.5044C117.826 19.1792 118.657 16.7933 120.098 14.9869C121.541 13.1798 123.601 11.9458 126.059 11.9458C127.762 11.9458 129.124 12.5433 130.06 13.5673C130.995 14.5897 131.494 16.0238 131.494 17.6769C131.494 21.6261 129.124 25.7453 125.422 26.9307C124.744 27.1479 124.014 27.2663 123.261 27.2663C122.508 27.2663 121.821 27.1495 121.208 26.9291C120.148 26.5504 119.313 25.8654 118.738 24.9573C118.026 25.858 117.231 26.5447 116.343 26.9257C115.831 27.1471 115.28 27.2663 114.716 27.2663C114.152 27.2663 113.65 27.1503 113.224 26.9209C112.322 26.4336 111.798 25.4551 111.726 24.0809C110.933 25.3846 109.861 26.4223 108.49 26.9291C107.9 27.1462 107.259 27.2646 106.562 27.2646C105.91 27.2646 105.313 27.1462 104.777 26.9266C103.655 26.4676 102.816 25.5742 102.325 24.4368C101.578 25.6724 100.764 26.4985 99.8468 26.9241C99.3551 27.1528 98.8264 27.2646 98.2898 27.2646C97.7531 27.2646 97.2765 27.1455 96.8744 26.9193C96.0141 26.4352 95.5199 25.4867 95.4278 24.2715C94.6877 25.4672 93.6968 26.441 92.4033 26.9282C91.8265 27.1455 91.193 27.2646 90.4976 27.2646C89.8488 27.2646 89.2465 27.1479 88.7034 26.9273C88.0274 26.6533 87.498 26.2042 87.0918 25.644C86.3694 26.3631 85.5235 26.8876 84.6175 27.169C83.6083 27.482 82.5005 27.4932 81.4656 27.0652C80.4172 26.6307 79.5833 25.8021 79.0523 24.689C78.7807 24.119 78.5067 23.4421 78.2432 22.7894C78.1695 22.6062 78.0958 22.4245 78.0238 22.2478C77.8636 21.857 77.7034 21.4744 77.5376 21.1056C77.1626 21.1834 76.8022 21.236 76.4618 21.2669L75.2499 26.9525H71.6582L76.304 5.15918H79.8964L77.3196 17.2448C79.1323 16.7169 81.6314 15.2236 83.3488 11.5364L86.7498 13.1595C85.1631 16.567 82.9667 18.6563 80.8152 19.8643C80.9706 20.217 81.1148 20.564 81.2502 20.8947C81.3399 21.1144 81.4248 21.3236 81.5057 21.5238C81.7604 22.153 81.9767 22.6896 82.1977 23.1518C82.3932 23.5612 82.619 23.7233 82.7888 23.7931C82.9731 23.8693 83.2423 23.8985 83.5955 23.7891C84.3076 23.5677 85.2471 22.7869 85.7117 21.2903L86.0522 19.7816C86.1851 18.7884 86.4358 17.8844 86.7539 17.2188C88.2749 14.0359 91.3139 11.8842 94.6788 11.8842C95.7738 11.8842 96.9177 12.1493 97.9172 12.5498C98.9162 12.9503 99.7837 13.4911 100.32 14.0522L100.373 14.1073L100.356 14.1818C100.25 14.6537 100.116 15.2293 99.9694 15.8609C99.7315 16.884 99.46 18.0547 99.2133 19.1744C99.0147 20.0791 98.8336 20.9474 98.7015 21.6722C98.5693 22.4011 98.49 22.9742 98.49 23.2945C98.49 23.536 98.5396 23.7088 98.615 23.8174C98.6855 23.9195 98.7856 23.9739 98.9218 23.9739C99.114 23.9739 99.3415 23.8676 99.6042 23.622C99.8653 23.378 100.146 23.0107 100.444 22.5251C101.04 21.5538 101.689 20.131 102.378 18.3337C103.648 14.4777 106.908 11.945 110.175 11.945C111.674 11.945 112.719 12.3942 113.462 13.0833L113.459 13.0849ZM95.926 18.2226L96.5628 15.5276C95.9693 15.1733 95.2956 14.9334 94.4362 14.9334C92.9415 14.9334 91.6255 15.7684 90.6779 17.0129C89.7295 18.2573 89.1616 19.8984 89.1616 21.476C89.1616 22.2754 89.3522 22.9239 89.6991 23.3699C90.0426 23.8118 90.5497 24.0679 91.2178 24.0679C92.219 24.0679 93.1754 23.5564 93.9948 22.5657C94.815 21.5733 95.4927 20.1075 95.926 18.2233V18.2226ZM112.683 16.6157L112.846 15.8219C112.243 15.3501 111.422 14.995 110.353 14.995C108.92 14.995 107.656 15.8065 106.745 17.0308C105.834 18.2557 105.287 19.8813 105.287 21.476C105.287 22.307 105.479 22.9556 105.814 23.3942C106.147 23.8279 106.631 24.0687 107.254 24.0687C108.394 24.0687 109.509 23.3342 110.466 22.0192C111.421 20.7067 112.205 18.8363 112.683 16.6164V16.6157ZM121.843 23.2831C122.212 23.7648 122.786 24.0671 123.62 24.0671C124.821 24.0671 125.919 23.2726 126.726 22.0857C127.53 20.9012 128.025 19.3495 128.025 17.891C128.025 17.1045 127.847 16.4179 127.474 15.9306C127.105 15.449 126.532 15.1458 125.697 15.1458C124.498 15.1458 123.399 15.9476 122.593 17.1385C121.789 18.3271 121.294 19.8796 121.294 21.3236C121.294 22.1101 121.471 22.7959 121.843 23.2831Z" fill="black"/>
<path d="M143.314 22.8557L143.234 22.974C142.595 23.9177 141.729 24.9701 141.137 25.4978C140.653 25.9308 140.099 26.3329 139.486 26.6443C138.748 27.0221 137.925 27.2653 137.043 27.2653C136.294 27.2653 135.647 27.1307 135.102 26.881C133.62 26.204 132.932 24.7001 132.932 22.8711C132.932 22.1471 133.014 21.4418 133.106 20.8881V20.8832L133.109 20.871C133.141 20.6772 133.174 20.5013 133.207 20.3506L134.283 15.2972H131.902L132.551 12.2505H134.916L136.178 6.39697H139.659L138.391 12.2505H142.608L141.959 15.2972H137.729L136.639 20.4697C136.637 20.481 136.634 20.4915 136.633 20.5021V20.5062L136.632 20.5078C136.63 20.52 136.627 20.5314 136.625 20.5434L136.622 20.5548C136.481 21.2821 136.37 21.9364 136.37 22.4762C136.37 22.9765 136.473 23.3616 136.653 23.617C136.829 23.8667 137.086 24.0061 137.435 24.0061C137.833 24.0061 138.196 23.8619 138.602 23.5691C139.011 23.274 139.453 22.8354 140.011 22.2582C140.055 22.2088 140.328 21.8739 140.623 21.5107L140.86 21.2188L143.314 22.8557Z" fill="black"/>
<path fill-rule="evenodd" clip-rule="evenodd" d="M60.7444 11.9468C58.2877 11.9468 56.2267 13.1799 54.7841 14.9878C53.3424 16.7941 52.5117 19.1793 52.5117 21.5053C52.5117 24.1069 53.7245 26.1549 55.8959 26.9308C56.5087 27.1505 57.1943 27.2664 57.9465 27.2664C58.6986 27.2664 59.4259 27.1489 60.1036 26.9324C63.809 25.7496 66.1799 21.6285 66.1799 17.6779C66.1799 16.0248 65.6816 14.5905 64.7469 13.5683C63.8106 12.5451 62.4481 11.9468 60.7444 11.9468ZM58.3077 24.0672C57.4731 24.0672 56.8996 23.764 56.5304 23.2832C56.1571 22.796 55.9808 22.1102 55.9808 21.3237C55.9808 19.8798 56.4759 18.3281 57.2801 17.1387C58.0866 15.9477 59.1849 15.1459 60.384 15.1459C61.2193 15.1459 61.7928 15.4491 62.1613 15.9307C62.5346 16.418 62.7108 17.1047 62.7108 17.8911C62.7108 19.3496 62.2158 20.9013 61.4116 22.0859C60.6057 23.2727 59.5068 24.0672 58.3077 24.0672Z" fill="black"/>
<path d="M15.7151 7.2379C18.7066 7.2379 21.1314 5.80958 21.1314 4.04766C21.1314 2.28574 18.7066 0.857422 15.7151 0.857422C12.7238 0.857422 10.2988 2.28574 10.2988 4.04766C10.2988 5.80958 12.7238 7.2379 15.7151 7.2379Z" fill="black"/>
<path d="M15.7151 31.2631C18.7066 31.2631 21.1314 29.8347 21.1314 28.0728C21.1314 26.3109 18.7066 24.8826 15.7151 24.8826C12.7238 24.8826 10.2988 26.3109 10.2988 28.0728C10.2988 29.8347 12.7238 31.2631 15.7151 31.2631Z" fill="black"/>
<path d="M8.16735 11.6489C9.66302 9.0268 9.65373 6.1872 8.14657 5.30646C6.63941 4.42573 4.20513 5.83737 2.70945 8.45946C1.21377 11.0815 1.22308 13.9211 2.73024 14.8019C4.23739 15.6826 6.67167 14.271 8.16735 11.6489Z" fill="black"/>
<path d="M28.7252 23.6611C30.2209 21.039 30.2112 18.1992 28.7037 17.3183C27.1962 16.4373 24.7616 17.8488 23.2659 20.4709C21.7702 23.093 21.7799 25.9327 23.2874 26.8138C24.7949 27.6947 27.2294 26.2832 28.7252 23.6611Z" fill="black"/>
<path d="M8.14511 26.8147C9.65265 25.9338 9.66226 23.094 8.16658 20.4719C6.6709 17.8498 4.23632 16.4384 2.72877 17.3193C1.22123 18.2003 1.21162 21.0401 2.70729 23.6621C4.20297 26.2842 6.63757 27.6957 8.14511 26.8147Z" fill="black"/>
<path d="M28.7037 14.801C30.2113 13.9201 30.2209 11.0803 28.7252 8.45821C27.2296 5.83613 24.7949 4.42465 23.2874 5.30562C21.7799 6.18658 21.7702 9.02636 23.2659 11.6484C24.7616 14.2706 27.1962 15.682 28.7037 14.801Z" fill="black"/>
</g>
<defs>
<clipPath id="clip0_62037_243">
<rect width="143.341" height="30.5299" fill="white" transform="translate(0 0.734863)"/>
</clipPath>
</defs>
</svg>
